{
  "asset": {
    "copyright": "",
    "generator": "Source 2 Viewer 7.0.0.0 - https://valveresourceformat.github.io",
    "version": "2.0"
  },
  "accessors": [
    {
      "bufferView": 0,
      "componentType": 5126,
      "count": 705,
      "max": [
        9.657063484191895,
        34.48788070678711,
        169.9457244873047
      ],
      "min": [
        -31.27151107788086,
        -34.48788070678711,
        115.24176788330078
      ],
      "type": "VEC3"
    },
    {
      "bufferView": 1,
      "componentType": 5126,
      "count": 705,
      "max": [
        1.9462890625,
        0.98974609375
      ],
      "min": [
        0.0116729736328125,
        0.00823974609375
      ],
      "type": "VEC2"
    },
    {
      "bufferView": 2,
      "componentType": 5126,
      "count": 705,
      "max": [
        0.999462902545929,
        0.9954080581665039,
        0.9963046908378601
      ],
      "min": [
        -0.9665486812591553,
        -0.996022641658783,
        -0.9918366074562073
      ],
      "type": "VEC3"
    },
    {
      "bufferView": 3,
      "componentType": 5126,
      "count": 705,
      "max": [
        0.9986589550971985,
        1,
        0.9954080581665039,
        1
      ],
      "min": [
        -0.9663735628128052,
        -0.9998700022697449,
        -0.9934532642364502,
        -1
      ],
      "type": "VEC4"
    },
    {
      "bufferView": 4,
      "componentType": 5123,
      "count": 705,
      "type": "VEC4"
    },
    {
      "bufferView": 5,
      "componentType": 5126,
      "count": 705,
      "max": [
        1,
        0.4941176474094391,
        0.30980393290519714,
        0
      ],
      "min": [
        0.37254902720451355,
        0,
        0,
        0
      ],
      "type": "VEC4"
    },
    {
      "bufferView": 6,
      "componentType": 5125,
      "count": 2988,
      "type": "SCALAR"
    },
    {
      "name": "Bind Matrices",
      "bufferView": 7,
      "componentType": 5126,
      "count": 14,
      "max": [
        1,
        0.8806177377700806,
        0.6690213680267334,
        0,
        0.8708951473236084,
        1,
        0.9999999403953552,
        0,
        0.9996703863143921,
        0.44390037655830383,
        1,
        0,
        131.51425170898438,
        40.50630569458008,
        137.731689453125,
        1
      ],
      "min": [
        -0.4550817608833313,
        -0.9934895038604736,
        -0.9996703863143921,
        0,
        -0.19617486000061035,
        -0.6509155631065369,
        -0.7324953079223633,
        0,
        -0.9934893846511841,
        -0.15827777981758118,
        -0.9583171606063843,
        0,
        -137.66015625,
        -72.99517822265625,
        -137.7316436767578,
        1
      ],
      "type": "MAT4"
    }
  ],
  "bufferViews": [
    {
      "buffer": 0,
      "byteLength": 8460,
      "byteOffset": 34512,
      "target": 34962
    },
    {
      "buffer": 0,
      "byteLength": 5640,
      "byteOffset": 51432,
      "target": 34962
    },
    {
      "buffer": 0,
      "byteLength": 8460,
      "byteOffset": 42972,
      "target": 34962
    },
    {
      "buffer": 0,
      "byteLength": 11280,
      "byteOffset": 11952,
      "target": 34962
    },
    {
      "buffer": 0,
      "byteLength": 5640,
      "byteOffset": 57072,
      "target": 34962
    },
    {
      "buffer": 0,
      "byteLength": 11280,
      "byteOffset": 23232,
      "target": 34962
    },
    {
      "buffer": 0,
      "byteLength": 11952,
      "target": 34963
    },
    {
      "buffer": 0,
      "byteLength": 896,
      "byteOffset": 62712
    }
  ],
  "buffers": [
    {
      "byteLength": 63608,
      "uri": "phantom_assassin_shoulders.bin"
    }
  ],
  "images": [
    {
      "name": "phantom_assassin_shoulders_color_psd_bcc532a7.vtex",
      "uri": "phantom_assassin_shoulders_color_psd_bcc532a7.png"
    },
    {
      "name": "phantom_assassin_shoulders_normal_psd_d5a2630c.vtex",
      "uri": "phantom_assassin_shoulders_normal_psd_d5a2630c.png"
    },
    {
      "name": "phantom_assassin_shoulders_detailmask_tga_cdd03c8_orm_279935531.png",
      "uri": "phantom_assassin_shoulders_detailmask_tga_cdd03c8_orm_279935531.png"
    }
  ],
  "materials": [
    {
      "extras": {
        "baseColorTexture": {
          "index": 0
        }
      },
      "name": "phantom_assassin_shoulders_color",
      "alphaMode": "MASK",
      "emissiveTexture": {
        "index": 2
      },
      "normalTexture": {
        "index": 1
      },
      "pbrMetallicRoughness": {
        "baseColorTexture": {
          "index": 0
        },
        "metallicRoughnessTexture": {
          "index": 2
        }
      }
    }
  ],
  "meshes": [
    {
      "name": "phantom_assassin_shoulders.vmdl_c.phantom_assassin_shoulder",
      "primitives": [
        {
          "attributes": {
            "POSITION": 0,
            "TEXCOORD_0": 1,
            "NORMAL": 2,
            "TANGENT": 3,
            "JOINTS_0": 4,
            "WEIGHTS_0": 5
          },
          "indices": 6,
          "material": 0
        }
      ]
    }
  ],
  "nodes": [
    {
      "name": "phantom_assassin_shoulders.vmdl_c",
      "children": [
        1
      ],
      "matrix": [
        3.027916E-09,
        0,
        0.025399996,
        0,
        0.025399996,
        3.027916E-09,
        0,
        0,
        0,
        0.025399996,
        3.027916E-09,
        0,
        0,
        0,
        0,
        1
      ]
    },
    {
      "name": "root",
      "children": [
        2
      ],
      "translation": [
        -4.164063,
        -0,
        103.375
      ]
    },
    {
      "name": "spine1",
      "children": [
        3
      ],
      "rotation": [
        4.6770886E-08,
        -0.6979725,
        1.4930775E-08,
        0.71612465
      ],
      "translation": [
        1.0676494,
        -3.9790393E-13,
        9.087044
      ]
    },
    {
      "name": "spine2",
      "children": [
        4
      ],
      "rotation": [
        -4.2976996E-08,
        -0.064717,
        5.8845417E-09,
        0.99790365
      ],
      "translation": [
        12.258316,
        9.999999E-07,
        1.4305115E-06
      ]
    },
    {
      "name": "spine3",
      "children": [
        5,
        11,
        13
      ],
      "rotation": [
        2.3948766E-07,
        -0.062704444,
        -5.43542E-08,
        0.99803215
      ],
      "translation": [
        15.290207,
        9.999994E-07,
        9.536743E-06
      ]
    },
    {
      "name": "capebase1_0",
      "children": [
        6,
        8,
        10
      ],
      "rotation": [
        0,
        1.4901152E-08,
        -1.7763558E-15,
        1
      ],
      "translation": [
        0.40707397,
        9.1297443E-07,
        11.558781
      ]
    },
    {
      "name": "cape_L_R0C0",
      "children": [
        7
      ],
      "rotation": [
        0.3193636,
        0.6504224,
        0.6694297,
        -0.16377264
      ],
      "translation": [
        -5.0977936,
        17.359974,
        3.7267866
      ]
    },
    {
      "name": "cape_L_R1C0",
      "rotation": [
        0.033820387,
        0.08131124,
        -0.077909924,
        0.99306333
      ],
      "translation": [
        12.065613,
        0.00016021729,
        0.000102996826
      ]
    },
    {
      "name": "cape_R_R0C0",
      "children": [
        9
      ],
      "rotation": [
        0.16377228,
        0.66942966,
        0.6504224,
        -0.31936374
      ],
      "translation": [
        -5.0977783,
        -17.360071,
        3.7267866
      ]
    },
    {
      "name": "cape_R_R1C0",
      "rotation": [
        -0.033822946,
        -0.08131742,
        -0.07790982,
        0.99306273
      ],
      "translation": [
        12.065575,
        0.00021362305,
        -0.0001373291
      ]
    },
    {
      "name": "cape_M_R0C0",
      "rotation": [
        0.120691106,
        0.69669276,
        0.69671184,
        -0.1210183
      ],
      "translation": [
        -18.557533,
        0.0096317,
        12.655044
      ]
    },
    {
      "name": "clavicle_R",
      "children": [
        12
      ],
      "rotation": [
        0.6355076,
        0.31004852,
        -0.5702979,
        -0.41804346
      ],
      "translation": [
        1.584549,
        -6.2109885,
        -0.48466682
      ]
    },
    {
      "name": "bicep_R",
      "rotation": [
        -0.6854099,
        0.28426275,
        0.44547945,
        0.50095505
      ],
      "translation": [
        -13.032881,
        4.386902E-05,
        -0.00047302246
      ]
    },
    {
      "name": "clavicle_L",
      "children": [
        14
      ],
      "rotation": [
        0.57029796,
        0.41804335,
        0.6355075,
        0.31004867
      ],
      "translation": [
        1.5845032,
        6.210982,
        -0.48465157
      ]
    },
    {
      "name": "bicep_L",
      "rotation": [
        -0.68540996,
        0.2842629,
        0.44547933,
        0.50095505
      ],
      "translation": [
        13.032911,
        -1.7166138E-05,
        0.00024414062
      ]
    },
    {
      "name": "phantom_assassin_shoulders.vmdl_c.phantom_assassin_shoulder",
      "mesh": 0,
      "skin": 0
    }
  ],
  "samplers": [
    {
      "magFilter": 9729,
      "minFilter": 9987
    }
  ],
  "scenes": [
    {
      "name": "phantom_assassin_shoulders.vmdl_c",
      "nodes": [
        0,
        15
      ]
    }
  ],
  "skins": [
    {
      "inverseBindMatrices": 7,
      "joints": [
        1,
        2,
        3,
        4,
        5,
        11,
        13,
        12,
        14,
        6,
        8,
        10,
        7,
        9
      ]
    }
  ],
  "textures": [
    {
      "name": "phantom_assassin_shoulders_color_psd_bcc532a7.vtex",
      "sampler": 0,
      "source": 0
    },
    {
      "name": "phantom_assassin_shoulders_normal_psd_d5a2630c.vtex",
      "sampler": 0,
      "source": 1
    },
    {
      "name": "phantom_assassin_shoulders_detailmask_tga_cdd03c8_orm_279935531.png",
      "sampler": 0,
      "source": 2
    }
  ]
}