{
  "asset": {
    "copyright": "",
    "generator": "Source 2 Viewer 7.0.0.0 - https://valveresourceformat.github.io",
    "version": "2.0"
  },
  "accessors": [
    {
      "bufferView": 0,
      "componentType": 5126,
      "count": 917,
      "max": [
        9.8667573928833,
        10.28028392791748,
        190.25357055664062
      ],
      "min": [
        -42.597293853759766,
        -10.280282020568848,
        141.4336700439453
      ],
      "type": "VEC3"
    },
    {
      "bufferView": 1,
      "componentType": 5126,
      "count": 917,
      "max": [
        1.98828125,
        0.98779296875
      ],
      "min": [
        0.01209259033203125,
        0.0101776123046875
      ],
      "type": "VEC2"
    },
    {
      "bufferView": 2,
      "componentType": 5126,
      "count": 917,
      "max": [
        0.998073399066925,
        0.9993062615394592,
        1
      ],
      "min": [
        -0.9963046908378601,
        -0.9997313618659973,
        -0.9998700022697449
      ],
      "type": "VEC3"
    },
    {
      "bufferView": 3,
      "componentType": 5126,
      "count": 917,
      "max": [
        0.9997313618659973,
        0.9998700022697449,
        0.999462902545929,
        1
      ],
      "min": [
        -0.9993062615394592,
        -0.9998700022697449,
        -0.9923720955848694,
        -1
      ],
      "type": "VEC4"
    },
    {
      "bufferView": 4,
      "componentType": 5123,
      "count": 917,
      "type": "VEC4"
    },
    {
      "bufferView": 5,
      "componentType": 5126,
      "count": 917,
      "max": [
        1,
        0.46666666865348816,
        0.21960784494876862,
        0
      ],
      "min": [
        0.4745098054409027,
        0,
        0,
        0
      ],
      "type": "VEC4"
    },
    {
      "bufferView": 6,
      "componentType": 5125,
      "count": 3729,
      "type": "SCALAR"
    },
    {
      "name": "Bind Matrices",
      "bufferView": 7,
      "componentType": 5126,
      "count": 9,
      "max": [
        1,
        5.102046340965671E-09,
        2.992111376443063E-07,
        0,
        3.2545236194891913E-07,
        1,
        1,
        0,
        0.9999821186065674,
        0.9058451056480408,
        1,
        0,
        175.0471954345703,
        1.1406349358367152E-06,
        27.557714462280273,
        1
      ],
      "min": [
        -0.9058451056480408,
        -0.9999998211860657,
        -0.9999821186065674,
        0,
        -4.390499341866416E-08,
        4.0531908496177493E-08,
        -8.783009519675034E-08,
        0,
        -0.9999998211860657,
        -2.5400986487511545E-06,
        -0.2273389995098114,
        0,
        -147.3937530517578,
        -173.6290283203125,
        -159.2764892578125,
        1
      ],
      "type": "MAT4"
    }
  ],
  "bufferViews": [
    {
      "buffer": 0,
      "byteLength": 11004,
      "byteOffset": 44260,
      "target": 34962
    },
    {
      "buffer": 0,
      "byteLength": 7336,
      "byteOffset": 66268,
      "target": 34962
    },
    {
      "buffer": 0,
      "byteLength": 11004,
      "byteOffset": 55264,
      "target": 34962
    },
    {
      "buffer": 0,
      "byteLength": 14672,
      "byteOffset": 14916,
      "target": 34962
    },
    {
      "buffer": 0,
      "byteLength": 7336,
      "byteOffset": 73604,
      "target": 34962
    },
    {
      "buffer": 0,
      "byteLength": 14672,
      "byteOffset": 29588,
      "target": 34962
    },
    {
      "buffer": 0,
      "byteLength": 14916,
      "target": 34963
    },
    {
      "buffer": 0,
      "byteLength": 576,
      "byteOffset": 80940
    }
  ],
  "buffers": [
    {
      "byteLength": 81516,
      "uri": "phantom_assassin_helmet.bin"
    }
  ],
  "images": [
    {
      "name": "phantom_assassin_helmet_color_psd_aa2faec8.vtex",
      "uri": "phantom_assassin_helmet_color_psd_aa2faec8.png"
    },
    {
      "name": "phantom_assassin_helmet_normal_psd_5cef4015.vtex",
      "uri": "phantom_assassin_helmet_normal_psd_5cef4015.png"
    },
    {
      "name": "phantom_assassin_helmet_detailmask_tga_b5b9cfb_orm_1135802096.png",
      "uri": "phantom_assassin_helmet_detailmask_tga_b5b9cfb_orm_1135802096.png"
    }
  ],
  "materials": [
    {
      "extras": {
        "baseColorTexture": {
          "index": 0
        }
      },
      "name": "phantom_assassin_helmet_color",
      "alphaMode": "MASK",
      "emissiveTexture": {
        "index": 2
      },
      "normalTexture": {
        "index": 1
      },
      "pbrMetallicRoughness": {
        "baseColorTexture": {
          "index": 0
        },
        "metallicRoughnessTexture": {
          "index": 2
        }
      }
    }
  ],
  "meshes": [
    {
      "name": "phantom_assassin_helmet.vmdl_c.phantom_assassin_head",
      "primitives": [
        {
          "attributes": {
            "POSITION": 0,
            "TEXCOORD_0": 1,
            "NORMAL": 2,
            "TANGENT": 3,
            "JOINTS_0": 4,
            "WEIGHTS_0": 5
          },
          "indices": 6,
          "material": 0
        }
      ]
    }
  ],
  "nodes": [
    {
      "name": "phantom_assassin_helmet.vmdl_c",
      "children": [
        1
      ],
      "matrix": [
        3.027916E-09,
        0,
        0.025399996,
        0,
        0.025399996,
        3.027916E-09,
        0,
        0,
        0,
        0.025399996,
        3.027916E-09,
        0,
        0,
        0,
        0,
        1
      ]
    },
    {
      "name": "root",
      "children": [
        2
      ],
      "translation": [
        -4.164063,
        -0,
        103.375
      ]
    },
    {
      "name": "spine1",
      "children": [
        3
      ],
      "rotation": [
        4.6770886E-08,
        -0.6979725,
        1.4930775E-08,
        0.71612465
      ],
      "translation": [
        1.0676494,
        -3.9790393E-13,
        9.087044
      ]
    },
    {
      "name": "spine2",
      "children": [
        4
      ],
      "rotation": [
        -4.2976996E-08,
        -0.064717,
        5.8845417E-09,
        0.99790365
      ],
      "translation": [
        12.258316,
        9.999999E-07,
        1.4305115E-06
      ]
    },
    {
      "name": "spine3",
      "children": [
        5
      ],
      "rotation": [
        1.6416009E-09,
        -0.06270454,
        2.612842E-08,
        0.99803215
      ],
      "translation": [
        15.290192,
        9.99999E-07,
        5.722046E-06
      ]
    },
    {
      "name": "neck1",
      "children": [
        6
      ],
      "rotation": [
        1.0243403E-09,
        0.117380716,
        -8.666318E-09,
        0.993087
      ],
      "translation": [
        7.7106323,
        -5.684342E-13,
        1.9073486E-05
      ]
    },
    {
      "name": "head",
      "children": [
        7
      ],
      "rotation": [
        1.7747407E-15,
        0.7049957,
        2.7283475E-15,
        0.70921165
      ],
      "translation": [
        11.843842,
        9.999984E-07,
        -1.9073486E-06
      ]
    },
    {
      "name": "hair_R0C0",
      "children": [
        8
      ],
      "rotation": [
        -0.15342224,
        0.69026196,
        0.69026196,
        0.15342245
      ],
      "translation": [
        -13.1966505,
        -3.3872743E-06,
        23.399673
      ]
    },
    {
      "name": "hair_R1C0",
      "children": [
        9
      ],
      "rotation": [
        -8.8199165E-08,
        -8.18108E-08,
        -0.5331636,
        0.8460122
      ],
      "translation": [
        17.2781,
        0.0005187988,
        -1.0772146E-06
      ]
    },
    {
      "name": "hair_R2C0",
      "rotation": [
        -1.4871322E-08,
        9.9284545E-09,
        -0.0043510613,
        0.9999905
      ],
      "translation": [
        15.015488,
        0.00017929077,
        -1.1279444E-06
      ]
    },
    {
      "name": "phantom_assassin_helmet.vmdl_c.phantom_assassin_head",
      "mesh": 0,
      "skin": 0
    }
  ],
  "samplers": [
    {
      "magFilter": 9729,
      "minFilter": 9987
    }
  ],
  "scenes": [
    {
      "name": "phantom_assassin_helmet.vmdl_c",
      "nodes": [
        0,
        10
      ]
    }
  ],
  "skins": [
    {
      "inverseBindMatrices": 7,
      "joints": [
        1,
        2,
        3,
        4,
        5,
        6,
        7,
        8,
        9
      ]
    }
  ],
  "textures": [
    {
      "name": "phantom_assassin_helmet_color_psd_aa2faec8.vtex",
      "sampler": 0,
      "source": 0
    },
    {
      "name": "phantom_assassin_helmet_normal_psd_5cef4015.vtex",
      "sampler": 0,
      "source": 1
    },
    {
      "name": "phantom_assassin_helmet_detailmask_tga_b5b9cfb_orm_1135802096.png",
      "sampler": 0,
      "source": 2
    }
  ]
}