{
  "asset": {
    "copyright": "",
    "generator": "Source 2 Viewer 7.0.0.0 - https://valveresourceformat.github.io",
    "version": "2.0"
  },
  "accessors": [
    {
      "bufferView": 0,
      "componentType": 5126,
      "count": 436,
      "max": [
        10.216462135314941,
        19.399700164794922,
        121.18773651123047
      ],
      "min": [
        -1.0271275043487549,
        -19.39969825744629,
        82.35383605957031
      ],
      "type": "VEC3"
    },
    {
      "bufferView": 1,
      "componentType": 5126,
      "count": 436,
      "max": [
        0.9860225319862366,
        0.9877926111221313
      ],
      "min": [
        0.014374217949807644,
        0.012176885269582272
      ],
      "type": "VEC2"
    },
    {
      "bufferView": 2,
      "componentType": 5126,
      "count": 436,
      "max": [
        0.9993062615394592,
        0.9963046908378601,
        0.9562957286834717
      ],
      "min": [
        -0.9941523671150208,
        -0.9969363212585449,
        -0.9622505307197571
      ],
      "type": "VEC3"
    },
    {
      "bufferView": 3,
      "componentType": 5126,
      "count": 436,
      "max": [
        0.9656401872634888,
        0.9972413182258606,
        0.9954080581665039,
        1
      ],
      "min": [
        -0.9889077544212341,
        -0.9972413182258606,
        -0.9944271445274353,
        -1
      ],
      "type": "VEC4"
    },
    {
      "bufferView": 4,
      "componentType": 5123,
      "count": 436,
      "type": "VEC4"
    },
    {
      "bufferView": 5,
      "componentType": 5126,
      "count": 436,
      "max": [
        1,
        0,
        0,
        0
      ],
      "min": [
        1,
        0,
        0,
        0
      ],
      "type": "VEC4"
    },
    {
      "bufferView": 6,
      "componentType": 5125,
      "count": 1302,
      "type": "SCALAR"
    },
    {
      "name": "Bind Matrices",
      "bufferView": 7,
      "componentType": 5126,
      "count": 3,
      "max": [
        1,
        0.07860555499792099,
        0.964593768119812,
        0,
        -0,
        1,
        6.842672917173331E-08,
        0,
        0.9207555055618286,
        -0,
        1,
        0,
        101.30220794677734,
        18.490861892700195,
        -31.618194580078125,
        1
      ],
      "min": [
        -0.2517535388469696,
        -0,
        0,
        0,
        -0.29804229736328125,
        -0.9545524716377258,
        -3.4581290719870594E-07,
        0,
        -0.9207555651664734,
        -0.2874898612499237,
        0.2637398838996887,
        0,
        -101.30219268798828,
        0,
        -103.375,
        1
      ],
      "type": "MAT4"
    }
  ],
  "bufferViews": [
    {
      "buffer": 0,
      "byteLength": 5232,
      "byteOffset": 13952,
      "target": 34962
    },
    {
      "buffer": 0,
      "byteLength": 3488,
      "byteOffset": 29624,
      "target": 34962
    },
    {
      "buffer": 0,
      "byteLength": 5232,
      "byteOffset": 19184,
      "target": 34962
    },
    {
      "buffer": 0,
      "byteLength": 6976,
      "target": 34962
    },
    {
      "buffer": 0,
      "byteLength": 3488,
      "byteOffset": 33112,
      "target": 34962
    },
    {
      "buffer": 0,
      "byteLength": 6976,
      "byteOffset": 6976,
      "target": 34962
    },
    {
      "buffer": 0,
      "byteLength": 5208,
      "byteOffset": 24416,
      "target": 34963
    },
    {
      "buffer": 0,
      "byteLength": 192,
      "byteOffset": 36600
    }
  ],
  "buffers": [
    {
      "byteLength": 36792,
      "uri": "phantom_assassin_daggers.bin"
    }
  ],
  "images": [
    {
      "name": "phantom_assassin_dagger_color_psd_b8c07a39.vtex",
      "uri": "phantom_assassin_dagger_color_psd_b8c07a39.png"
    },
    {
      "name": "phantom_assassin_dagger_normal_psd_fdd9f85d.vtex",
      "uri": "phantom_assassin_dagger_normal_psd_fdd9f85d.png"
    },
    {
      "name": "phantom_assassin_dagger_detailmask_tga_711a2c17_orm_746852323.png",
      "uri": "phantom_assassin_dagger_detailmask_tga_711a2c17_orm_746852323.png"
    }
  ],
  "materials": [
    {
      "extras": {
        "baseColorTexture": {
          "index": 0
        }
      },
      "name": "phantom_assassin_dagger_color",
      "alphaMode": "MASK",
      "emissiveTexture": {
        "index": 2
      },
      "normalTexture": {
        "index": 1
      },
      "pbrMetallicRoughness": {
        "baseColorTexture": {
          "index": 0
        },
        "metallicRoughnessTexture": {
          "index": 2
        }
      }
    }
  ],
  "meshes": [
    {
      "name": "phantom_assassin_daggers.vmdl_c.phantom_assassin_belt",
      "primitives": [
        {
          "attributes": {
            "POSITION": 0,
            "TEXCOORD_0": 1,
            "NORMAL": 2,
            "TANGENT": 3,
            "JOINTS_0": 4,
            "WEIGHTS_0": 5
          },
          "indices": 6,
          "material": 0
        }
      ]
    }
  ],
  "nodes": [
    {
      "name": "phantom_assassin_daggers.vmdl_c",
      "children": [
        1
      ],
      "matrix": [
        3.027916E-09,
        0,
        0.025399996,
        0,
        0.025399996,
        3.027916E-09,
        0,
        0,
        0,
        0.025399996,
        3.027916E-09,
        0,
        0,
        0,
        0,
        1
      ]
    },
    {
      "name": "root",
      "children": [
        2,
        3
      ],
      "translation": [
        -4.164063,
        -0,
        103.375
      ]
    },
    {
      "name": "knife1_0_R",
      "rotation": [
        0.599804,
        -0.09146198,
        0.78581905,
        -0.11982649
      ],
      "translation": [
        7.7060933,
        -12.541854,
        3.5544815
      ]
    },
    {
      "name": "knife0_0_L",
      "rotation": [
        -0.09146182,
        0.5998039,
        -0.119826496,
        0.7858191
      ],
      "translation": [
        7.7060876,
        12.541851,
        3.5544968
      ]
    },
    {
      "name": "phantom_assassin_daggers.vmdl_c.phantom_assassin_belt",
      "mesh": 0,
      "skin": 0
    }
  ],
  "samplers": [
    {
      "magFilter": 9729,
      "minFilter": 9987
    }
  ],
  "scenes": [
    {
      "name": "phantom_assassin_daggers.vmdl_c",
      "nodes": [
        0,
        4
      ]
    }
  ],
  "skins": [
    {
      "inverseBindMatrices": 7,
      "joints": [
        1,
        2,
        3
      ]
    }
  ],
  "textures": [
    {
      "name": "phantom_assassin_dagger_color_psd_b8c07a39.vtex",
      "sampler": 0,
      "source": 0
    },
    {
      "name": "phantom_assassin_dagger_normal_psd_fdd9f85d.vtex",
      "sampler": 0,
      "source": 1
    },
    {
      "name": "phantom_assassin_dagger_detailmask_tga_711a2c17_orm_746852323.png",
      "sampler": 0,
      "source": 2
    }
  ]
}